<svg width="76" height="76" xmlns="http://www.w3.org/2000/svg" xmlns:xlink="http://www.w3.org/1999/xlink"><defs><linearGradient x1="62.101%" y1="50%" x2="37.088%" y2="78.4%" id="d"><stop stop-color="#FFF" offset="0%"/><stop stop-color="#FFF" stop-opacity="0" offset="100%"/></linearGradient><linearGradient x1="61.809%" y1="23.47%" x2="18.998%" y2="79.138%" id="f"><stop stop-color="#FFF" stop-opacity=".5" offset="0%"/><stop stop-opacity=".5" offset="100%"/></linearGradient><path d="M5.745 1.676c.758.58 1.172 1.303 1.242 2.167.716 3.572 12.946 10.773 21.662 11.487 5.81.475 12.698-.73 20.662-3.619l1.737-.399a4 4 0 002.187-1.35l3.573-4.322a1 1 0 00.196-.385l.539-2.064a1 1 0 01.473-.617L60.931.916a1 1 0 01.973-.009l2.527 1.378a1 1 0 01.38 1.39L62.917 6.85a1 1 0 01-.859.487h-1.014a1 1 0 00-.77.362l-2.642 3.188a3 3 0 00-.69 1.874c-.037 2.799-.228 4.889-.572 6.27-.578 2.325-10.492 13.905-31.305 10.189-10.882-1.943-18.369-6.373-22.46-13.29A13 13 0 011.444 5.26l.342-1.043.126-1.173a1 1 0 01.702-.85l2.231-.681a1 1 0 01.9.163z" id="a"/><path d="M57.176 3.668c1.61 1.437 3.13 2.223 4.562 2.359l3.026-5.41L59.585-3c-3.216 3.009-4.02 5.232-2.409 6.668z" id="e"/><radialGradient cx="44.936%" cy="34.28%" fx="44.936%" fy="34.28%" r="46.832%" gradientTransform="matrix(-.05323 .99293 -1.24998 -.3331 .902 .01)" id="b"><stop stop-color="#FFF" stop-opacity=".5" offset="0%"/><stop stop-opacity=".5" offset="100%"/></radialGradient></defs><g fill="none" fill-rule="evenodd"><g transform="translate(7 45)"><mask id="c" fill="#fff"><use xlink:href="#a"/></mask><use fill="#FEDA63" xlink:href="#a"/><use fill="url(#b)" style="mix-blend-mode:overlay" xlink:href="#a"/><path d="M.836 1.989a1.495 1.495 0 011.144.1C4.003 3.95 4.829 5.3 4.93 6.357c.51 2.452 3.398 7.619 8.889 11.327 3.612 2.439 8.355 4.245 14.308 4.245 9.494 0 16.4-1.238 20.702-3.758a5.5 5.5 0 001.263-1.016h0l4.137-4.485a4.5 4.5 0 011.588-1.107h0l2.389-.987.877-2.554a1.5 1.5 0 01.714-.925h0l3.552-2a1.5 1.5 0 011.448-.012h0l3.183 1.717c.364.197.614.522.724.89.112.372.08.786-.123 1.154h0l-2.372 3.936a1.5 1.5 0 01-1.285.726h0-1.366l-3.626 4.051a2.5 2.5 0 00-.583 1.576c-.039 3.365-.27 5.87-.685 7.52-.44 1.754-4.397 8.988-13.716 12.843-5.23 2.163-12.15 3.264-21.082 1.685-7.2-1.272-13.075-3.595-17.63-6.956-4.584-3.38-7.838-7.812-9.763-13.295a13.5 13.5 0 01-.076-8.72h0l.863-2.603.213-1.965 2.483-4.917c.192-.368.514-.623.88-.738z" stroke="#FFF" fill="#000" opacity=".079" mask="url(#c)"/><path fill="url(#d)" style="mix-blend-mode:overlay" mask="url(#c)" d="M52 4.693L57.912 13l4.724-2.679L55.562 0z"/><path d="M-2.819 6.972l-.078.17a2 2 0 00-.136.538l-.198 1.822-.847 2.553a14 14 0 00-.048 8.662C.118 34.017 8.8 39.03 23.779 41.676c11.033 1.95 19.936.051 26.72-4.62 4.611-3.176 8.002-7.702 8.65-10.28.302-1.2.505-2.803.613-4.818l.04-.888c.012-.305.022-.618.03-.94l.017-.99a2 2 0 01.467-1.26l3.242-3.872h1.366a2 2 0 001.713-.967l2.343-3.886.036-.062a2.005 2.005 0 00-.799-2.731l-3.182-1.717a2 2 0 00-1.931.017l-3.552 1.999a2 2 0 00-.953 1.234l-.584 2.219-2.389.987a5 5 0 00-1.764 1.23l-3.807 4.127a5 5 0 01-1.732 1.217c-7.15 3.016-13.853 4.264-20.116 3.757-4.361-.353-8.92-.406-14.28-5.021l-.298-.26-.603-.535-.59-.54-.577-.543-.56-.543c-.093-.09-.184-.181-.275-.272l-.535-.542-.517-.538-.25-.267-.486-.53a41.453 41.453 0 01-.463-.52l-.44-.512a33.06 33.06 0 01-.414-.5l-.389-.486c-.062-.08-.124-.158-.184-.237L7 9.124a19.634 19.634 0 01-.602-.87l-.253-.402c-.355-.587-.596-1.094-.702-1.495L5.42 6.26l.01.086C5.324 5.052 4.39 3.63 2.674 1.979a2 2 0 00-3.161.517l-2.332 4.476zm4.568-4.44a1 1 0 01.232.167c1.554 1.497 2.371 2.74 2.453 3.73.124.615.534 1.45 1.174 2.429l.288.428.316.444.342.459.367.473.392.485.205.246.427.5.449.51.47.518c.08.086.16.173.243.26l.5.526.519.53.537.533.554.535c.093.09.188.178.283.267l.577.535.294.266.6.531c.1.089.202.177.304.264l.618.525.314.26.636.516c.106.086.214.17.321.255l.651.503.329.249.664.488.335.24.674.47.681.455c.114.075.228.149.343.222l.688.433c3.221 1.98 5.564.399 8.598.645 6.432.52 13.294-.757 20.585-3.833a6 6 0 002.077-1.46l3.808-4.127a4 4 0 011.411-.984l2.389-.987a1 1 0 00.585-.67l.584-2.219a1 1 0 01.477-.617l3.551-1.998a1 1 0 01.966-.009l3.182 1.717a1 1 0 01.405 1.355l-2.366 3.927a1 1 0 01-.857.484h-1.366a1 1 0 00-.767.358l-3.242 3.872a3 3 0 00-.7 1.891 70 70 0 01-.03 1.434l-.033.892-.021.427-.05.817-.03.389-.067.74c-.109 1.073-.255 1.974-.438 2.705l-.023.084-.062.192-.082.22-.049.122-.114.26-.066.141-.147.298a4.797 4.797 0 01-.082.158l-.18.332-.204.352-.11.183-.238.38-.128.195-.273.403-.298.417c-.206.282-.429.573-.668.87l-.371.449c-4.478 5.287-14.108 12.11-31.132 9.102C9.33 38.107.955 33.348-3.173 20.413a13 13 0 01.044-8.043l.88-2.654.21-1.928a1 1 0 01.107-.354L.4 2.958a1 1 0 011.349-.425z" fill="#FFF" fill-rule="nonzero" style="mix-blend-mode:overlay" opacity=".245" mask="url(#c)"/><g opacity=".516" mask="url(#c)"><use fill="#958A76" xlink:href="#e"/><use fill="url(#f)" xlink:href="#e"/></g></g><path d="M12.745 46.676c.758.58 1.172 1.303 1.242 2.167.716 3.572 12.946 10.773 21.662 11.487 5.81.475 12.698-.73 20.662-3.619h0l1.737-.399a4 4 0 002.187-1.35l3.573-4.322a1 1 0 00.196-.385l.539-2.064a1 1 0 01.473-.617l2.915-1.658a1 1 0 01.973-.009l2.527 1.378a1 1 0 01.38 1.39l-1.894 3.175a1 1 0 01-.859.487h-1.014a1 1 0 00-.77.362l-2.642 3.188a3 3 0 00-.69 1.874c-.037 2.799-.228 4.889-.572 6.27-.578 2.325-10.492 13.905-31.305 10.189-10.882-1.943-18.369-6.373-22.46-13.29a13 13 0 01-1.162-10.67l.342-1.043h0l.126-1.173a1 1 0 01.702-.85l2.231-.681a1 1 0 01.9.163z" stroke="#7A746A"/></g></svg>