<svg xmlns="http://www.w3.org/2000/svg" width="24" height="24"><g fill="none" fill-rule="evenodd"><path d="M0 0h24v24H0z"/><path stroke="#595F6B" stroke-linecap="round" stroke-linejoin="round" stroke-width="1.3" d="M6.5 7.5h11a2 2 0 012 2v7a2 2 0 01-2 2h-11a2 2 0 01-2-2v-7a2 2 0 012-2zm4-3h3a2 2 0 012 2v1h0-7v-1a2 2 0 012-2zm-5 7l5 1.538m3.038-.011L18.5 11.5"/><path stroke="#595F6B" stroke-linecap="round" stroke-linejoin="round" stroke-width="1.3" d="M11.5 11.5h1a1 1 0 011 1v1a1 1 0 01-1 1h-1a1 1 0 01-1-1v-1a1 1 0 011-1z"/></g></svg>