<svg xmlns="http://www.w3.org/2000/svg" width="24" height="24"><g fill="none" fill-rule="evenodd"><path d="M0 0h24v24H0z"/><path stroke="#595F6B" stroke-linecap="round" stroke-linejoin="round" stroke-width="1.3" d="M6.108 5.178l2.608-.521a3.98 3.98 0 011.568 0l3.432.686a3.98 3.98 0 001.568 0l1.824-.365A2 2 0 0119.5 6.94v9.92a2 2 0 01-1.608 1.962l-2.606.521a3.984 3.984 0 01-1.569 0l-3.433-.686a3.98 3.98 0 00-1.568 0l-1.824.365A2 2 0 014.5 17.06V7.14a2 2 0 011.608-1.962z"/><path stroke="#464B55" stroke-linecap="square" stroke-width="1.3" d="M9.5 5.5v13m5-12.036v12.072"/></g></svg>